<svg width="277" height="99" viewBox="0 0 277 99" fill="none" xmlns="http://www.w3.org/2000/svg">
<path d="M0.304199 85V73.48L26.5122 44.68H0.592199V31.24H46.3842V42.76L20.1762 71.56H46.5762V85H0.304199Z" fill="white"/>
<path d="M52.7464 74.056V42.184L63.6904 31.24H101.706V61.576H68.8745V71.56H99.7865V85H63.6904L52.7464 74.056ZM68.8745 53.704L88.0744 52.744V43.528H68.8745V53.704Z" fill="white"/>
<path d="M109.371 98.44V85H133.371L135.387 77.32H118.779L106.203 31.24H122.715L130.779 64.456H138.267L146.043 31.24H162.459L144.795 98.44H109.371Z" fill="white"/>
<path d="M167.702 85V31.24H206.486L218.006 42.76V85H201.878V45.256H183.83V85H167.702Z" fill="white"/>
<path d="M226.465 74.056V42.184L237.409 31.24H265.441L276.385 42.184V74.056L265.441 85H237.409L226.465 74.056ZM242.593 72.136H260.257V44.104H242.593V72.136Z" fill="white"/>
<path d="M18.9533 3.70312C18.5471 3.50521 18.0783 3.29688 17.5471 3.07812C17.0158 2.84896 16.4064 2.64583 15.7189 2.46875C15.0419 2.29167 14.2762 2.14583 13.4221 2.03125C12.5679 1.90625 11.62 1.84375 10.5783 1.84375C9.31791 1.84375 8.19291 1.91667 7.20332 2.0625C6.22416 2.20833 5.39082 2.4375 4.70332 2.75C4.02624 3.05208 3.50541 3.4375 3.14082 3.90625C2.78666 4.375 2.60957 4.93229 2.60957 5.57812C2.60957 6.11979 2.77624 6.59375 3.10957 7C3.45332 7.40625 3.91166 7.76562 4.48457 8.07812C5.06791 8.39062 5.74499 8.67708 6.51582 8.9375C7.29707 9.1875 8.11999 9.42708 8.98457 9.65625C9.85957 9.875 10.7554 10.099 11.6721 10.3281C12.5992 10.5573 13.495 10.8073 14.3596 11.0781C15.2346 11.3385 16.0575 11.6354 16.8283 11.9688C17.6096 12.2917 18.2867 12.6719 18.8596 13.1094C19.4429 13.5469 19.9012 14.0469 20.2346 14.6094C20.5783 15.1719 20.7502 15.8229 20.7502 16.5625C20.7502 17.3646 20.5992 18.0677 20.2971 18.6719C19.995 19.2656 19.5835 19.7812 19.0627 20.2188C18.5523 20.6458 17.9481 21.0052 17.2502 21.2969C16.5627 21.5781 15.8231 21.8021 15.0314 21.9688C14.2502 22.1354 13.4377 22.25 12.5939 22.3125C11.7606 22.3854 10.9377 22.4219 10.1252 22.4219C8.26062 22.4219 6.56791 22.2865 5.04707 22.0156C3.53666 21.7448 2.09395 21.375 0.718949 20.9062V18.5156C2.13562 19.3594 3.63041 19.9375 5.20332 20.25C6.78666 20.5625 8.44812 20.7188 10.1877 20.7188C11.4169 20.7188 12.5523 20.6458 13.5939 20.5C14.6356 20.3542 15.5367 20.125 16.2971 19.8125C17.0575 19.4896 17.646 19.0729 18.0627 18.5625C18.4898 18.0521 18.7033 17.4271 18.7033 16.6875C18.7033 16.0938 18.5314 15.5729 18.1877 15.125C17.8544 14.6771 17.396 14.2865 16.8127 13.9531C16.2398 13.6094 15.5627 13.3073 14.7814 13.0469C14.0106 12.7865 13.1929 12.5469 12.3283 12.3281C11.4637 12.099 10.5679 11.8802 9.64082 11.6719C8.72416 11.4531 7.83353 11.2188 6.96895 10.9688C6.10437 10.7188 5.28145 10.4375 4.5002 10.125C3.72937 9.8125 3.05228 9.44792 2.46895 9.03125C1.89603 8.60417 1.4377 8.11458 1.09395 7.5625C0.760616 7.01042 0.593949 6.36979 0.593949 5.64062C0.593949 4.92188 0.729366 4.28646 1.0002 3.73438C1.27103 3.17188 1.64082 2.6875 2.10957 2.28125C2.58874 1.875 3.14603 1.53646 3.78145 1.26562C4.41687 0.984375 5.09395 0.765625 5.8127 0.609375C6.54187 0.442708 7.29707 0.322917 8.07832 0.25C8.85957 0.177083 9.63041 0.140625 10.3908 0.140625C11.2242 0.140625 12.0106 0.177083 12.7502 0.25C13.5002 0.322917 14.2189 0.421875 14.9064 0.546875C15.6044 0.661458 16.2814 0.796875 16.9377 0.953125C17.6044 1.10938 18.2762 1.27604 18.9533 1.45312V3.70312Z" fill="#FF7856"/>
<path d="M35.5002 2.3125V22H33.5627V2.3125H23.7971V0.53125H45.2658V2.3125H35.5002Z" fill="#FF7856"/>
<path d="M51.3752 0.53125V14.7031C51.3648 15.901 51.5158 16.8854 51.8283 17.6562C52.1408 18.4271 52.5887 19.0365 53.1721 19.4844C53.7658 19.9219 54.4794 20.2292 55.3127 20.4062C56.1564 20.5729 57.1044 20.6562 58.1564 20.6562C59.3752 20.6562 60.5679 20.5104 61.7346 20.2188C62.9012 19.9167 64.0002 19.5417 65.0314 19.0938C66.0627 18.6354 67.0054 18.1302 67.8596 17.5781C68.7242 17.026 69.4585 16.4948 70.0627 15.9844V0.53125H72.0471V22H70.0627V18.2188C69.3335 18.6875 68.5367 19.1771 67.6721 19.6875C66.8075 20.1875 65.87 20.651 64.8596 21.0781C63.8596 21.4948 62.7867 21.8385 61.6408 22.1094C60.495 22.3802 59.2814 22.5156 58.0002 22.5156C56.5523 22.5156 55.2867 22.3333 54.2033 21.9688C53.1304 21.6042 52.2346 21.0938 51.5158 20.4375C50.8075 19.7812 50.2762 19.0052 49.9221 18.1094C49.5679 17.2031 49.3908 16.2083 49.3908 15.125V0.53125H51.3752Z" fill="#FF7856"/>
<path d="M102.735 11.25C102.735 12.625 102.589 13.849 102.297 14.9219C102.016 15.9844 101.615 16.9115 101.094 17.7031C100.573 18.4948 99.9377 19.1667 99.1877 19.7188C98.4481 20.2708 97.62 20.7135 96.7033 21.0469C95.7971 21.3802 94.8075 21.625 93.7346 21.7812C92.6721 21.9271 91.5523 22 90.3752 22H79.2971V0.53125H90.3439C92.1044 0.53125 93.7398 0.703125 95.2502 1.04688C96.7606 1.39062 98.0679 1.97917 99.1721 2.8125C100.287 3.63542 101.156 4.73438 101.781 6.10938C102.417 7.48438 102.735 9.19792 102.735 11.25ZM100.719 11.25C100.719 10.0833 100.604 9.05208 100.375 8.15625C100.146 7.26042 99.8179 6.48438 99.3908 5.82812C98.9637 5.16146 98.4429 4.60417 97.8283 4.15625C97.2137 3.70833 96.521 3.34896 95.7502 3.07812C94.9794 2.79688 94.1408 2.59896 93.2346 2.48438C92.3283 2.36979 91.3648 2.3125 90.3439 2.3125H81.2502V20.2031H90.3439C91.8752 20.2031 93.2762 20.0677 94.5471 19.7969C95.8179 19.5156 96.9064 19.0365 97.8127 18.3594C98.7294 17.6719 99.4429 16.7552 99.9533 15.6094C100.464 14.4531 100.719 13 100.719 11.25Z" fill="#FF7856"/>
<path d="M108.422 22V0.53125H110.375V22H108.422Z" fill="#FF7856"/>
<path d="M143.375 11.2812C143.375 13.2083 143.026 14.875 142.328 16.2812C141.63 17.6771 140.672 18.8333 139.453 19.75C138.235 20.6562 136.797 21.3281 135.141 21.7656C133.485 22.2031 131.698 22.4219 129.781 22.4219C127.854 22.4219 126.057 22.2031 124.391 21.7656C122.724 21.3281 121.276 20.6562 120.047 19.75C118.818 18.8333 117.854 17.6771 117.156 16.2812C116.459 14.875 116.11 13.2083 116.11 11.2812C116.11 10 116.271 8.83854 116.594 7.79688C116.917 6.74479 117.37 5.80729 117.953 4.98438C118.537 4.15104 119.24 3.43229 120.063 2.82812C120.896 2.22396 121.818 1.72396 122.828 1.32812C123.849 0.921875 124.943 0.625 126.11 0.4375C127.276 0.239583 128.5 0.140625 129.781 0.140625C131.698 0.140625 133.485 0.359375 135.141 0.796875C136.797 1.23438 138.235 1.91146 139.453 2.82812C140.672 3.73438 141.63 4.89062 142.328 6.29688C143.026 7.69271 143.375 9.35417 143.375 11.2812ZM141.36 11.2812C141.36 9.76042 141.11 8.41667 140.61 7.25C140.12 6.08333 139.391 5.10417 138.422 4.3125C137.453 3.51042 136.245 2.90625 134.797 2.5C133.36 2.08333 131.688 1.875 129.781 1.875C127.875 1.875 126.193 2.08333 124.735 2.5C123.287 2.91667 122.073 3.52604 121.094 4.32812C120.115 5.11979 119.375 6.10417 118.875 7.28125C118.375 8.44792 118.125 9.78125 118.125 11.2812C118.125 12.8021 118.375 14.1458 118.875 15.3125C119.375 16.4792 120.115 17.4635 121.094 18.2656C122.073 19.0573 123.287 19.6615 124.735 20.0781C126.193 20.4844 127.875 20.6875 129.781 20.6875C131.688 20.6875 133.36 20.4844 134.797 20.0781C136.245 19.6615 137.453 19.0573 138.422 18.2656C139.391 17.4635 140.12 16.4792 140.61 15.3125C141.11 14.1458 141.36 12.8021 141.36 11.2812Z" fill="#FF7856"/>
</svg>
