<svg xmlns="http://www.w3.org/2000/svg" xmlns:xlink="http://www.w3.org/1999/xlink" width="500" zoomAndPan="magnify" viewBox="0 0 375 374.999991" height="500" preserveAspectRatio="xMidYMid meet" version="1.2"><defs><clipPath id="f498c06af2"><path d="M 123.320312 95.128906 L 249.808594 95.128906 L 249.808594 135.851562 L 123.320312 135.851562 Z M 123.320312 95.128906 "/></clipPath><clipPath id="81ed832eed"><path d="M 129.378906 231.625 L 245.621094 231.625 L 245.621094 272.347656 L 129.378906 272.347656 Z M 129.378906 231.625 "/></clipPath><clipPath id="afc8023b06"><path d="M 37.5 29.746094 L 346.316406 29.746094 L 346.316406 338.5625 L 37.5 338.5625 Z M 37.5 29.746094 "/></clipPath><clipPath id="941b404142"><path d="M 191.910156 338.5625 C 150.683594 338.5625 111.867188 322.515625 82.738281 293.324219 C 53.546875 264.195312 37.5 225.378906 37.5 184.152344 C 37.5 142.929688 53.546875 104.109375 82.738281 74.980469 C 111.867188 45.789062 150.683594 29.746094 191.910156 29.746094 C 233.132812 29.746094 271.953125 45.789062 301.082031 74.980469 C 330.273438 104.171875 346.316406 142.929688 346.316406 184.152344 C 346.316406 225.378906 330.273438 264.195312 301.082031 293.324219 C 271.953125 322.515625 233.132812 338.5625 191.910156 338.5625 Z M 191.910156 39 C 153.152344 39 116.679688 54.121094 89.277344 81.523438 C 61.878906 108.921875 46.757812 145.394531 46.757812 184.152344 C 46.757812 222.910156 61.878906 259.382812 89.277344 286.785156 C 116.679688 314.183594 153.152344 329.304688 191.910156 329.304688 C 230.664062 329.304688 267.136719 314.183594 294.539062 286.785156 C 321.941406 259.382812 337.058594 222.910156 337.058594 184.152344 C 337.058594 145.394531 321.941406 108.921875 294.539062 81.523438 C 267.136719 54.121094 230.664062 39 191.910156 39 Z M 191.910156 39 "/></clipPath></defs><g id="2e22af1743"><g clip-rule="nonzero" clip-path="url(#f498c06af2)"><path style=" stroke:none;fill-rule:nonzero;fill:#f5f5ef;fill-opacity:1;" d="M 123.320312 95.128906 L 249.789062 95.128906 L 249.789062 135.851562 L 123.320312 135.851562 Z M 123.320312 95.128906 "/></g><g clip-rule="nonzero" clip-path="url(#81ed832eed)"><path style=" stroke:none;fill-rule:nonzero;fill:#f5f5ef;fill-opacity:1;" d="M 129.378906 231.625 L 245.667969 231.625 L 245.667969 272.347656 L 129.378906 272.347656 Z M 129.378906 231.625 "/></g><g clip-rule="nonzero" clip-path="url(#afc8023b06)"><g clip-rule="nonzero" clip-path="url(#941b404142)"><path style=" stroke:none;fill-rule:nonzero;fill:#19191e;fill-opacity:1;" d="M 37.5 29.746094 L 346.316406 29.746094 L 346.316406 338.5625 L 37.5 338.5625 Z M 37.5 29.746094 "/></g></g><g style="fill:#000000;fill-opacity:1;"><g transform="translate(84.327932, 199.005153)"><path style="stroke:none" d="M 35.40625 0 L 1.828125 0 L 1.828125 -7.171875 L 21.046875 -21.875 L 1.828125 -21.875 L 1.828125 -29.046875 L 35.40625 -29.046875 L 35.40625 -21.875 L 16.171875 -7.171875 L 35.40625 -7.171875 Z M 35.40625 0 "/></g></g><g style="fill:#000000;fill-opacity:1;"><g transform="translate(121.552323, 199.005153)"><path style="stroke:none" d="M 38.25 0 L 3.234375 0 L 3.234375 -29.0625 L 36.640625 -29.0625 L 36.640625 -21.875 L 15.4375 -21.875 L 15.4375 -17.3125 L 33.359375 -17.3125 L 33.359375 -11.734375 L 15.4375 -11.734375 L 15.4375 -7.1875 L 38.25 -7.1875 Z M 38.25 0 "/></g></g><g style="fill:#000000;fill-opacity:1;"><g transform="translate(161.409561, 199.005153)"><path style="stroke:none" d="M 28.359375 0 L 16.171875 0 L 16.171875 -13.78125 L 0.296875 -29.0625 L 13.8125 -29.0625 L 22.265625 -20.375 L 30.6875 -29.0625 L 44.203125 -29.0625 L 28.359375 -13.78125 Z M 28.359375 0 "/></g></g><g style="fill:#000000;fill-opacity:1;"><g transform="translate(205.904659, 199.005153)"><path style="stroke:none" d="M 46.359375 0 L 31.859375 0 L 15.4375 -19.671875 L 15.4375 0 L 3.234375 0 L 3.234375 -29.0625 L 17.75 -29.0625 L 34.171875 -9.5 L 34.171875 -29.0625 L 46.359375 -29.0625 Z M 46.359375 0 "/></g></g><g style="fill:#000000;fill-opacity:1;"><g transform="translate(255.503427, 199.005153)"><path style="stroke:none" d="M 21.984375 0.625 C 14.796875 0.625 9.507812 -0.851562 6.125 -3.8125 C 3.125 -6.425781 1.625 -10 1.625 -14.53125 C 1.625 -19.039062 3.125 -22.601562 6.125 -25.21875 C 9.507812 -28.175781 14.796875 -29.65625 21.984375 -29.65625 C 29.160156 -29.65625 34.445312 -28.175781 37.84375 -25.21875 C 40.832031 -22.601562 42.328125 -19.039062 42.328125 -14.53125 C 42.328125 -10 40.832031 -6.425781 37.84375 -3.8125 C 34.445312 -0.851562 29.160156 0.625 21.984375 0.625 Z M 21.984375 -7.171875 C 24.921875 -7.171875 27.078125 -8.015625 28.453125 -9.703125 C 29.566406 -11.066406 30.125 -12.675781 30.125 -14.53125 C 30.125 -16.375 29.566406 -17.972656 28.453125 -19.328125 C 27.078125 -21.023438 24.921875 -21.875 21.984375 -21.875 C 19.035156 -21.875 16.863281 -21.023438 15.46875 -19.328125 C 14.363281 -17.972656 13.8125 -16.375 13.8125 -14.53125 C 13.8125 -12.675781 14.363281 -11.066406 15.46875 -9.703125 C 16.863281 -8.015625 19.035156 -7.171875 21.984375 -7.171875 Z M 21.984375 -7.171875 "/></g></g></g></svg>